<?xml version="1.0" standalone="no"?><!DOCTYPE svg PUBLIC "-//W3C//DTD SVG 1.1//EN" "http://www.w3.org/Graphics/SVG/1.1/DTD/svg11.dtd"><svg t="1691501204076" class="icon" viewBox="0 0 1024 1024" version="1.1" xmlns="http://www.w3.org/2000/svg" p-id="5074" xmlns:xlink="http://www.w3.org/1999/xlink" width="200" height="200"><path d="M916.189299 0H107.686602a26.929407 26.929407 0 0 0-26.929406 26.929407v970.141186a26.929407 26.929407 0 0 0 26.929406 26.929407h256.015513a40.39411 40.39411 0 0 0 0-80.664122H161.669515v-862.485608h700.66097v363.795188a40.39411 40.39411 0 1 0 80.664122 0V26.867357A26.929407 26.929407 0 0 0 916.189299 0z" fill="#ffa631" p-id="5075"></path><path d="M309.843301 269.294068h404.251348a40.39411 40.39411 0 1 0 0-80.664122H309.843301a40.39411 40.39411 0 1 0 0 80.664122z m0 188.629946h188.629946a40.39411 40.39411 0 1 0 0-80.664122h-188.629946a40.39411 40.39411 0 1 0 0 80.664122z m534.368782 409.897837a242.550809 242.550809 0 1 0-57.147428 57.147427l86.869054 86.869054a40.39411 40.39411 0 0 0 57.147428-57.147427z m-197.503 21.282918a161.700539 161.700539 0 1 1 161.700539-161.700539 161.700539 161.700539 0 0 1-161.700539 161.886687z" fill="#ffa631" p-id="5076"></path></svg>