<?xml version="1.0" standalone="no"?><!DOCTYPE svg PUBLIC "-//W3C//DTD SVG 1.1//EN" "http://www.w3.org/Graphics/SVG/1.1/DTD/svg11.dtd"><svg height="1024" node-id="1" sillyvg="true" template-height="1024" template-width="1024" version="1.1" viewBox="0 0 1024 1024" width="1024" xmlns="http://www.w3.org/2000/svg" xmlns:xlink="http://www.w3.org/1999/xlink"><defs node-id="32"><linearGradient gradientUnits="objectBoundingBox" id="linearGradient-1" node-id="5" spreadMethod="pad" x1="0.5" x2="0.5" y1="0" y2="0.6307759"><stop offset="0" stop-color="#ff9500" stop-opacity="0.39733204"></stop><stop offset="0.649557" stop-color="#ff9200" stop-opacity="0.06616979"></stop><stop offset="1" stop-color="#ff9000" stop-opacity="0"></stop></linearGradient><linearGradient gradientUnits="objectBoundingBox" id="linearGradient-2" node-id="9" spreadMethod="pad" x1="0.5" x2="0.5" y1="0" y2="1"><stop offset="0" stop-color="#ffc065"></stop><stop offset="1" stop-color="#ff8c35"></stop></linearGradient></defs><path d="M 0.00 0.00 L 1024.00 0.00 L 1024.00 1024.00 L 0.00 1024.00 Z" fill="#ffffff" fill-rule="evenodd" node-id="50" stroke="none" target-height="1024" target-width="1024" target-x="0" target-y="0"></path><g node-id="52"><path d="M 0.00 0.00 L 1024.00 0.00 L 1024.00 1024.00 L 0.00 1024.00 Z" fill="none" group-id="1" id="矩形" node-id="15" stroke="none" target-height="1024" target-width="1024" target-x="0" target-y="0"></path><g node-id="53"><path d="M 862.00 735.00 C 862.00 817.84 705.30 885.00 512.00 885.00 C 318.70 885.00 162.00 817.84 162.00 735.00 C 162.00 652.16 318.70 585.00 512.00 585.00 C 705.30 585.00 862.00 652.16 862.00 735.00 Z" fill="url(#linearGradient-1)" fill-opacity="0.5" fill-rule="evenodd" group-id="1,2" id="椭圆形" node-id="16" stroke="none" target-height="300" target-width="700" target-x="162" target-y="585"></path></g><g node-id="54"><g node-id="57"><path d="M 720.46 647.68 L 722.60 647.97 L 724.89 647.72 L 727.41 646.86 L 730.23 645.26 L 733.43 642.74 L 736.75 639.45 L 740.39 635.15 L 744.37 629.66 L 748.72 622.81 L 753.83 613.69 L 759.23 602.80 L 764.93 589.90 L 770.12 576.86 L 775.35 562.29 L 780.62 546.07 L 785.38 529.73 L 789.18 515.05 L 792.12 501.91 L 794.54 488.62 L 796.08 477.27 L 796.84 467.64 L 796.98 460.12 L 796.66 453.91 L 795.98 448.83 L 795.00 444.70 L 793.72 441.29 L 792.24 438.70 L 790.60 436.79 L 788.79 435.43 L 786.78 434.57 L 784.91 434.26 L 782.71 434.31 L 780.08 434.79 L 776.95 435.81 L 773.08 437.55 L 768.68 440.07 L 763.68 443.51 L 758.96 447.26 L 753.93 451.79 L 748.58 457.16 L 743.55 462.79 L 738.45 469.13 L 733.29 476.24 L 728.51 483.58 L 723.89 491.57 L 719.44 500.23 L 715.46 509.11 L 711.85 518.56 L 708.64 528.62 L 705.99 538.84 L 703.92 548.71 L 702.40 558.25 L 701.34 567.86 L 700.74 576.95 L 700.59 585.55 L 700.83 594.17 L 701.42 602.08 L 702.33 609.33 L 703.62 616.55 L 705.12 622.88 L 706.80 628.40 L 708.87 633.81 L 710.99 638.15 L 713.12 641.58 L 715.06 644.00 L 716.92 645.75 L 718.71 646.95 L 720.46 647.68 Z" fill="#ffdbad" fill-rule="evenodd" group-id="1,3,6" id="椭圆形" node-id="18" stroke="none" target-height="213.70996" target-width="96.38995" target-x="700.59" target-y="434.26"></path></g><g node-id="58"><path d="M 773.30 464.85 L 762.64 482.78 L 753.65 498.85 L 746.18 513.21 L 740.07 526.00 L 735.18 537.35 L 731.38 547.40 L 728.54 556.26 L 726.18 565.48 L 724.14 575.80 L 722.48 587.33 L 721.22 600.17 L 720.43 614.43 L 720.16 630.23 L 720.46 647.68" fill="none" group-id="1,3,7" id="路径-42" node-id="19" stroke="#ffffff" stroke-linecap="butt" stroke-opacity="0.8" stroke-width="2" target-height="182.82999" target-width="53.140015" target-x="720.16" target-y="464.85"></path></g><g node-id="59"><path d="M 720.46 647.68 L 719.13 646.41 L 718.32 644.81 L 718.02 642.76 L 718.33 640.10 L 719.39 636.67 L 721.41 632.27 L 724.65 626.70 L 728.21 621.37 L 732.74 615.15 L 738.38 607.92 L 747.40 597.00 L 758.48 584.20 L 766.27 575.65 L 773.05 568.75 L 778.92 563.27 L 785.10 558.10 L 790.34 554.27 L 794.76 551.55 L 799.44 549.29 L 803.32 548.00 L 806.54 547.47 L 809.01 547.48 L 811.18 547.84 L 813.10 548.50 L 814.80 549.47 L 815.96 550.50 L 816.96 551.90 L 817.80 553.77 L 818.44 556.20 L 818.84 559.45 L 818.86 563.38 L 818.41 568.12 L 817.58 572.79 L 816.25 577.96 L 814.38 583.69 L 812.16 589.27 L 809.39 595.15 L 806.01 601.35 L 802.28 607.32 L 797.95 613.37 L 792.97 619.53 L 787.55 625.26 L 782.02 630.24 L 776.37 634.51 L 770.40 638.33 L 764.57 641.51 L 758.86 644.08 L 752.97 646.25 L 747.50 647.86 L 742.40 648.97 L 737.21 649.72 L 732.76 650.01 L 728.95 649.93 L 725.14 649.43 L 722.39 648.65 L 720.46 647.68 Z" fill="#ffb76a" fill-rule="evenodd" group-id="1,3,8" id="椭圆形" node-id="20" stroke="none" target-height="102.54004" target-width="100.839966" target-x="718.02" target-y="547.47"></path></g><path d="M 796.87 578.96 L 790.58 588.26 L 784.07 597.14 L 777.35 605.61 L 770.40 613.68 L 763.24 621.37 L 756.77 627.61 L 750.28 633.04 L 743.77 637.72 L 737.20 641.70 L 730.58 645.01 L 723.89 647.68" fill="none" group-id="1,3,9" id="路径-43" node-id="21" stroke="#ffffff" stroke-linecap="butt" stroke-opacity="0.8" stroke-width="2" target-height="68.71997" target-width="72.97998" target-x="723.89" target-y="578.96"></path></g><g node-id="55"><g node-id="61"><path d="M 304.83 695.44 L 303.61 695.57 L 302.27 695.31 L 300.75 694.56 L 298.97 693.19 L 296.94 691.09 L 294.64 688.12 L 292.06 684.09 L 288.55 677.56 L 284.74 669.08 L 281.22 659.90 L 277.66 649.08 L 274.83 639.09 L 272.79 630.50 L 271.42 623.18 L 270.49 615.72 L 270.26 610.00 L 270.56 605.69 L 271.28 602.43 L 272.28 600.28 L 273.47 598.93 L 274.87 598.19 L 276.26 598.04 L 278.06 598.34 L 280.41 599.23 L 282.62 600.43 L 285.13 602.14 L 287.97 604.45 L 290.63 606.95 L 293.40 609.93 L 296.30 613.44 L 298.97 617.12 L 301.58 621.23 L 304.12 625.80 L 306.37 630.52 L 308.39 635.61 L 310.16 641.11 L 311.87 648.15 L 313.01 654.78 L 313.61 661.03 L 313.79 667.33 L 313.57 672.95 L 313.01 677.94 L 312.05 682.91 L 310.92 686.89 L 309.65 690.02 L 308.36 692.34 L 307.13 693.90 L 305.96 694.90 L 304.83 695.44 Z" fill="#ffdbad" fill-rule="evenodd" group-id="1,4,10" id="椭圆形" node-id="23" stroke="none" target-height="97.53003" target-width="43.53" target-x="270.26" target-y="598.04"></path></g><g node-id="62"><path d="M 280.96 612.01 L 287.48 623.22 L 292.58 632.82 L 296.45 641.00 L 299.26 647.91 L 301.18 653.73 L 302.63 659.75 L 303.78 666.81 L 304.57 675.01 L 304.94 684.51 L 304.83 695.44" fill="none" group-id="1,4,11" id="路径-42" node-id="24" stroke="#ffffff" stroke-linecap="butt" stroke-opacity="0.8" stroke-width="1" target-height="83.42999" target-width="23.980011" target-x="280.96" target-y="612.01"></path></g><g node-id="63"><path d="M 304.83 695.44 L 305.54 694.68 L 305.89 693.65 L 305.84 692.23 L 305.24 690.23 L 304.04 687.76 L 302.08 684.54 L 299.14 680.42 L 294.24 674.22 L 287.66 666.48 L 282.93 661.31 L 279.02 657.46 L 275.82 654.71 L 272.37 652.24 L 269.66 650.75 L 267.54 649.99 L 265.34 649.70 L 263.61 649.94 L 262.22 650.63 L 261.41 651.48 L 260.79 652.83 L 260.42 654.86 L 260.38 656.95 L 260.64 659.48 L 261.26 662.53 L 262.14 665.49 L 263.39 668.72 L 265.05 672.24 L 266.96 675.61 L 269.29 679.06 L 272.08 682.60 L 275.18 685.83 L 278.33 688.53 L 281.55 690.74 L 284.97 692.65 L 288.22 694.11 L 291.31 695.16 L 294.51 695.95 L 297.27 696.38 L 299.65 696.51 L 302.05 696.36 L 303.71 695.98 L 304.83 695.44 Z" fill="#ffb76a" fill-rule="evenodd" group-id="1,4,12" id="椭圆形" node-id="25" stroke="none" target-height="46.809998" target-width="45.51001" target-x="260.38" target-y="649.7"></path></g><path d="M 270.32 664.08 L 275.11 671.05 L 280.17 677.50 L 285.50 683.44 L 289.01 686.81 L 292.54 689.66 L 296.08 692.03 L 299.66 693.95 L 303.28 695.44" fill="none" group-id="1,4,13" id="路径-43" node-id="26" stroke="#ffffff" stroke-linecap="butt" stroke-opacity="0.8" stroke-width="1" target-height="31.359985" target-width="32.95999" target-x="270.32" target-y="664.08"></path></g><g node-id="56"><g node-id="65"><path d="M 380.00 380.00 L 644.00 380.00 L 644.00 644.00 L 380.00 644.00 Z" fill="#000000" fill-opacity="0" fill-rule="nonzero" group-id="1,5,14" id="矩形" node-id="28" stroke="none" target-height="264" target-width="264" target-x="380" target-y="380"></path></g><path d="M 432.75 540.59 L 439.35 545.42 L 446.00 549.79 L 452.68 553.71 L 459.41 557.19 L 466.38 560.35 L 473.27 563.05 L 480.10 565.31 L 486.88 567.14 L 493.07 568.65 L 499.32 569.69 L 505.62 570.27 L 512.00 570.39 L 513.06 570.39 L 513.14 570.45 L 513.21 570.40 L 519.28 570.21 L 525.27 569.60 L 531.21 568.58 L 537.10 567.13 L 543.87 565.29 L 550.70 563.03 L 557.60 560.33 L 564.56 557.17 L 571.29 553.69 L 577.98 549.77 L 584.62 545.41 L 591.23 540.57 L 597.62 535.35 L 603.57 529.97 L 609.08 524.44 L 614.18 518.75 L 619.02 512.74 L 623.39 506.69 L 627.31 500.60 L 630.80 494.45 L 633.96 488.04 L 636.63 481.71 L 638.84 475.43 L 640.60 469.19 L 641.96 462.79 L 642.82 456.56 L 643.22 450.47 L 643.15 444.50 L 636.90 442.57 L 630.36 441.15 L 623.50 440.24 L 616.28 439.86 L 609.13 440.01 L 601.80 440.68 L 594.26 441.88 L 586.49 443.63 L 578.94 445.84 L 571.33 448.58 L 563.66 451.87 L 555.92 455.73 L 554.40 447.26 L 552.42 439.19 L 550.01 431.50 L 547.15 424.16 L 543.79 416.95 L 540.08 410.26 L 536.04 404.05 L 531.66 398.29 L 526.81 392.84 L 521.73 388.00 L 516.41 383.73 L 510.84 380.00 L 505.48 383.87 L 500.37 388.25 L 495.50 393.18 L 490.86 398.68 L 486.67 404.46 L 482.82 410.67 L 479.29 417.33 L 476.09 424.48 L 473.39 431.75 L 471.12 439.36 L 469.27 447.32 L 467.86 455.66 L 460.13 451.82 L 452.48 448.55 L 444.89 445.83 L 437.35 443.63 L 429.60 441.89 L 422.08 440.70 L 414.76 440.04 L 407.63 439.90 L 400.43 440.28 L 393.58 441.19 L 387.06 442.62 L 380.83 444.55 L 380.76 450.50 L 381.15 456.59 L 382.02 462.82 L 383.37 469.22 L 385.13 475.45 L 387.34 481.73 L 390.02 488.06 L 393.18 494.46 L 396.66 500.61 L 400.58 506.71 L 404.95 512.76 L 409.79 518.76 L 414.89 524.45 L 420.41 529.99 L 426.35 535.37 L 432.75 540.59 Z M 400.53 570.39 L 398.55 571.18 L 396.93 572.41 L 395.68 574.00 L 394.86 575.85 L 394.55 577.85 L 394.77 579.98 L 395.56 581.96 L 396.77 583.59 L 398.35 584.86 L 400.19 585.68 L 402.20 586.02 L 404.32 585.80 L 409.17 584.89 L 413.91 584.46 L 418.56 584.51 L 423.15 585.02 L 427.69 585.99 L 432.04 587.36 L 436.21 589.12 L 440.23 591.30 L 444.02 593.85 L 447.52 596.72 L 450.75 599.94 L 453.71 603.51 L 456.30 607.34 L 458.51 611.44 L 460.33 615.83 L 461.77 620.55 L 462.52 622.52 L 463.74 624.17 L 465.33 625.47 L 467.26 626.32 L 469.34 626.64 L 471.38 626.41 L 473.29 625.66 L 474.99 624.42 L 476.30 622.77 L 477.11 620.88 L 477.42 618.85 L 477.18 616.76 L 475.70 611.71 L 473.88 606.93 L 471.73 602.40 L 469.24 598.10 L 466.41 594.00 L 463.32 590.18 L 459.97 586.65 L 456.35 583.38 L 452.49 580.39 L 448.44 577.73 L 444.20 575.38 L 439.76 573.34 L 435.19 571.65 L 430.50 570.33 L 425.69 569.36 L 420.74 568.76 L 415.77 568.55 L 410.76 568.74 L 405.69 569.35 L 400.53 570.39 L 400.53 570.39 Z M 625.85 570.39 L 620.36 569.29 L 614.88 568.69 L 609.37 568.56 L 603.88 568.92 L 598.46 569.74 L 593.11 571.04 L 587.89 572.80 L 582.84 575.01 L 577.92 577.69 L 573.26 580.80 L 568.96 584.25 L 564.98 588.06 L 561.34 592.20 L 558.10 596.61 L 555.24 601.31 L 552.79 606.24 L 550.78 611.38 L 549.20 616.75 L 548.96 618.84 L 549.26 620.88 L 550.08 622.76 L 551.38 624.41 L 553.08 625.66 L 555.00 626.40 L 557.04 626.63 L 559.12 626.31 L 561.04 625.46 L 562.64 624.17 L 563.85 622.51 L 564.61 620.55 L 566.04 615.83 L 567.86 611.43 L 570.06 607.33 L 572.65 603.50 L 575.61 599.92 L 578.84 596.71 L 582.34 593.83 L 586.13 591.28 L 590.15 589.11 L 594.32 587.34 L 598.67 585.98 L 603.21 585.01 L 607.80 584.50 L 612.46 584.45 L 617.20 584.88 L 622.04 585.80 L 624.14 586.04 L 626.17 585.74 L 628.05 584.93 L 629.70 583.62 L 630.95 581.92 L 631.69 580.01 L 631.92 577.96 L 631.61 575.88 L 630.75 573.96 L 629.46 572.36 L 627.80 571.15 L 625.84 570.39 L 625.85 570.39 Z" fill="url(#linearGradient-2)" fill-rule="nonzero" group-id="1,5" id="形状" node-id="29" stroke="none" target-height="246.64001" target-width="262.45996" target-x="380.76" target-y="380"></path><path d="M 513.19 576.28 L 511.06 576.57 L 509.19 577.36 L 507.58 578.60 L 506.34 580.21 L 505.54 582.09 L 505.25 584.22 L 505.25 636.06 L 505.54 638.19 L 506.34 640.07 L 507.58 641.68 L 509.19 642.92 L 511.06 643.71 L 513.19 644.00 L 515.32 643.71 L 517.20 642.92 L 518.80 641.68 L 520.04 640.07 L 520.84 638.19 L 521.13 636.06 L 521.13 584.22 L 520.97 582.66 L 520.52 581.18 L 519.79 579.82 L 518.80 578.60 L 517.59 577.61 L 516.23 576.88 L 514.75 576.44 L 513.19 576.28 L 513.19 576.28 Z" fill="#ff8c35" fill-rule="nonzero" group-id="1,5" id="路径" node-id="30" stroke="none" target-height="67.71997" target-width="15.880005" target-x="505.25" target-y="576.28"></path></g></g></svg>